<?xml version="1.0" encoding="UTF-8" standalone="no"?>
<svg
   xmlns:dc="http://purl.org/dc/elements/1.1/"
   xmlns:cc="http://creativecommons.org/ns#"
   xmlns:rdf="http://www.w3.org/1999/02/22-rdf-syntax-ns#"
   xmlns:svg="http://www.w3.org/2000/svg"
   xmlns="http://www.w3.org/2000/svg"
   xmlns:sodipodi="http://sodipodi.sourceforge.net/DTD/sodipodi-0.dtd"
   xmlns:inkscape="http://www.inkscape.org/namespaces/inkscape"
   inkscape:version="1.0 (4035a4fb49, 2020-05-01)"
   sodipodi:docname="org.gabmus.notorious-symbolic.svg"
   id="svg6"
   viewBox="0 0 16 16"
   version="1.1"
   height="16px"
   width="16px">
  <defs
     id="defs10" />
  <sodipodi:namedview
     inkscape:current-layer="svg6"
     inkscape:window-maximized="0"
     inkscape:window-y="27"
     inkscape:window-x="0"
     inkscape:cy="10.988939"
     inkscape:cx="7.9853985"
     inkscape:zoom="11.335806"
     inkscape:bbox-nodes="true"
     inkscape:snap-bbox="true"
     inkscape:snap-page="true"
     showgrid="false"
     id="namedview8"
     inkscape:window-height="1064"
     inkscape:window-width="1931"
     inkscape:pageshadow="2"
     inkscape:pageopacity="0"
     guidetolerance="10"
     gridtolerance="10"
     objecttolerance="10"
     borderopacity="1"
     bordercolor="#666666"
     pagecolor="#ffffff" />
  <metadata
     id="metadata2">
    <rdf:RDF>
      <cc:Work
         rdf:about="">
        <dc:format>image/svg+xml</dc:format>
        <dc:type
           rdf:resource="http://purl.org/dc/dcmitype/StillImage" />
        <dc:title />
      </cc:Work>
    </rdf:RDF>
  </metadata>
  <path
     d="M 8 0 A 8 8 0 0 0 0 8 A 8 8 0 0 0 2.96875 14.21875 L 5.3769531 5.234375 L 5.4648438 4.9023438 L 5.4726562 4.9023438 A 0.51985037 0.51985037 0 0 1 5.4765625 4.8632812 L 5.5078125 4.7421875 A 0.51985037 0.51985037 0 0 1 5.9902344 4.4160156 A 0.51985037 0.51985037 0 0 1 6.0214844 4.4160156 L 6.5488281 4.5585938 L 10.740234 5.6796875 A 1.7782162 1.7782162 0 0 1 12.730469 4.8691406 A 1.7782162 1.7782162 0 0 1 13.988281 7.046875 A 1.7782162 1.7782162 0 0 1 11.810547 8.3046875 A 1.7782162 1.7782162 0 0 1 10.492188 6.6054688 L 6.3007812 5.4824219 L 3.8007812 14.808594 A 8 8 0 0 0 8 16 A 8 8 0 0 0 16 8 A 8 8 0 0 0 8 0 z "
     style="fill:#3d3846;stroke:none;stroke-width:0.760155;paint-order:markers stroke fill"
     id="path890" />
</svg>
