<?xml version="1.0" encoding="UTF-8"?>
<svg width="16" height="16" version="1.1" viewBox="0 0 4.2333 4.2333" xmlns="http://www.w3.org/2000/svg">
 <g transform="translate(71.656 -81.923)">
  <g transform="translate(-.273 .27182)">
   <path transform="matrix(.26458 0 0 .26458 -71.656 81.923)" d="m3.2676 2.0664c-0.34561-0.054661-0.73772 0.079533-0.97266 0.36328-0.31397 0.37901-0.30721 0.97127 0.013672 1.3008l3.4766 3.4766c0.3182 0.4384 1.0625 0.47066 1.4727 0.060547 0.40869-0.40871 0.37857-1.1552-0.060547-1.4727l-3.4766-3.4766a0.834 0.834 0 0 0-0.13086-0.13281c-0.097581-0.061521-0.20706-0.10092-0.32227-0.11914zm4.7168 1.1719a2.492 2.492 0 0 0-0.89648 0.17188 2.686 2.686 0 0 0-0.48633 0.26562l1.8008 1.8008 1.4141-1.4121-0.078125-0.080078c-0.089083-0.089084-0.16408-0.1908-0.26367-0.26367a2.492 2.492 0 0 0-1.4902-0.48242zm2.5371 1.5312-1.4141 1.4121 0.70898 0.70898 1.4121-1.4141zm1.416 1.416-1.4141 1.4121 1.7383 1.7383c0.070639-0.10753 0.14632-0.22454 0.19726-0.33203a2.467 2.467 0 0 0-0.50781-2.8047zm-8.1641 0.31836c-0.63357 0.96732-0.53852 2.2916 0.30859 3.1387l2.2129 2.2129c0.84641 0.84641 2.1701 0.94287 3.1367 0.30859zm5.7109 1.9043a0.936 1.01 45 0 0-0.81836 1.6777l3.4902 3.4922a0.936 1.01 45 1 0 1.4121-1.4121l-3.4902-3.4922a0.936 1.01 45 0 0-0.13086-0.13086 0.936 1.01 45 0 0-0.46289-0.13477z" fill="#474747" style="text-decoration-line:none;text-indent:0;text-transform:none"/>
   <path d="m-68.746 81.923h-0.26458v0.22013a0.26458 0.26458 0 0 0 0.26458 0.30903h0.41963l-1.1359 1.1359c-0.25982 0.24924 0.12488 0.63394 0.37412 0.37412l1.1359-1.1359v0.41963a0.26458 0.26458 0 0 0 0.30639 0.26458h0.22278v-1.5875z" color="#000000" fill="#2e3436" overflow="visible" stroke-width=".26458" style="font-feature-settings:normal;font-variant-alternates:normal;font-variant-caps:normal;font-variant-ligatures:normal;font-variant-numeric:normal;font-variant-position:normal;isolation:auto;mix-blend-mode:normal;shape-padding:0;text-decoration-color:#000000;text-decoration-line:none;text-decoration-style:solid;text-indent:0;text-orientation:mixed;text-transform:none"/>
  </g>
 </g>
</svg>
